<svg font-family="-apple-system-body, ui-sans-serif, -apple-system, system-ui, &quot;Segoe UI&quot;, Helvetica, &quot;Apple Color Emoji&quot;, Arial, sans-serif, &quot;Segoe UI Emoji&quot;, &quot;Segoe UI Symbol&quot;" font-weight="400" data-d-component="svg" fill="currentColor" style="color:rgb(237, 237, 237)" viewBox="0 0 340 255" width="100%" xmlns="http://www.w3.org/2000/svg"><rect x="95" y="8" width="150" height="41" rx="8" fill="#512044" stroke="#D185B9"/><text x="170" y="25" font-size="11" text-anchor="middle" fill="white">Suspect claim A</text><text x="170" y="39" font-size="9" text-anchor="middle" fill="#F5DDEC">Application restricted</text><path d="M170 49 V72 H82 V89 M170 72 H258 V89" fill="none" stroke="#A78BFA" stroke-width="1.5"/><rect x="7" y="89" width="150" height="47" rx="8" fill="#4D3031" stroke="#D19C84"/><text x="82" y="107" font-size="10" fill="white" text-anchor="middle">Lesson B</text><text x="82" y="121" font-size="9" fill="#F6DDD1" text-anchor="middle">Depends entirely on A</text><rect x="183" y="89" width="150" height="47" rx="8" fill="#1D4437" stroke="#56C29D"/><text x="258" y="107" font-size="10" fill="white" text-anchor="middle">Lesson C</text><text x="258" y="121" font-size="9" fill="#D1F5E5" text-anchor="middle">Also has evidence X</text><path d="M82 136 V166 M258 136 V166" fill="none" stroke="#A78BFA" stroke-width="1.5"/><rect x="7" y="166" width="150" height="42" rx="8" fill="#4D3031" stroke="#D19C84"/><text x="82" y="183" font-size="10" fill="white" text-anchor="middle">Use of B blocked</text><text x="82" y="196" font-size="9" fill="#F6DDD1" text-anchor="middle">Needs revalidation</text><rect x="183" y="166" width="150" height="42" rx="8" fill="#1D4437" stroke="#56C29D"/><text x="258" y="183" font-size="10" fill="white" text-anchor="middle">C independently tested</text><text x="258" y="196" font-size="9" fill="#D1F5E5" text-anchor="middle">Valid portion can continue</text><path d="M258 208 V230" stroke="#56C29D" stroke-width="1.5"/><text x="170" y="248" text-anchor="middle" font-size="9" fill="currentColor">Contain dependence, not the entire graph</text></svg>